<svg id="Capa_1" enable-background="new 0 0 512 512" height="512" viewBox="0 0 512 512" width="512" xmlns="http://www.w3.org/2000/svg"><g><g><path d="m497 210h-482c-8.401 0-15 6.599-15 15v242c0 8.399 6.599 15 15 15h181c4.799 0 9.3 2.399 12.299 6.299 17.406 24.368 47.598 23.676 47.701 23.701 18.9-.3 36.599-9 48.3-24.3 2.701-3.6 7.2-5.7 11.7-5.7h181c8.401 0 15-6.601 15-15v-242c0-8.401-6.599-15-15-15z" fill="#b36859"/></g><path d="m512 225v242c0 8.399-6.599 15-15 15h-181c-4.501 0-9 2.1-11.7 5.7-11.7 15.3-29.399 24-48.3 24.3v-302h241c8.401 0 15 6.599 15 15z" fill="#99534d"/><path d="m331 75v60c0 8.399-6.599 15-15 15s-15-6.601-15-15v-45h-30v45c0 8.399-6.599 15-15 15h-60c-8.401 0-15-6.601-15-15 0-8.401 6.599-15 15-15h45v-30h-45c-8.401 0-15-6.601-15-15v-60c0-8.401 6.599-15 15-15s15 6.599 15 15v45h30v-45c0-8.401 6.599-15 15-15h60c8.401 0 15 6.599 15 15 0 8.399-6.599 15-15 15h-45v30h45c8.401 0 15 6.599 15 15z" fill="#ffe566"/><path d="m331 75v60c0 8.399-6.599 15-15 15s-15-6.601-15-15v-45h-30v45c0 8.399-6.599 15-15 15v-150h60c8.401 0 15 6.599 15 15 0 8.399-6.599 15-15 15h-45v30h45c8.401 0 15 6.599 15 15z" fill="#fc3"/><g><path d="m436 180h-120c-24.6 0-46.199 11.7-60 30-13.801-18.3-35.4-30-60-30h-120c-8.401 0-15 6.599-15 15v212c0 8.399 6.599 15 15 15h135c16.5 0 30 13.5 30 30 0 8.399 6.599 15 15 15s15-6.601 15-15c0-16.5 13.5-30 30-30h135c8.401 0 15-6.601 15-15v-212c0-8.401-6.599-15-15-15z" fill="#ecf2ff"/></g><path d="m451 195v212c0 8.399-6.599 15-15 15h-135c-16.5 0-30 13.5-30 30 0 8.399-6.599 15-15 15v-257c13.801-18.3 35.4-30 60-30h120c8.401 0 15 6.599 15 15z" fill="#d9e5ff"/></g></svg>